<svg width="89" height="89" viewBox="0 0 89 89" fill="none" xmlns="http://www.w3.org/2000/svg">
<g clip-path="url(#clip0)">
<path fill-rule="evenodd" clip-rule="evenodd" d="M44.5 89C44.5 89 77.875 57.3716 77.875 33.375C77.875 24.5234 74.3587 16.0343 68.0997 9.77531C61.8407 3.51628 53.3516 0 44.5 0C35.6484 0 27.1593 3.51628 20.9003 9.77531C14.6413 16.0343 11.125 24.5234 11.125 33.375C11.125 57.3716 44.5 89 44.5 89ZM44.5 50.0625C48.9258 50.0625 53.1703 48.3044 56.2998 45.1748C59.4294 42.0453 61.1875 37.8008 61.1875 33.375C61.1875 28.9492 59.4294 24.7047 56.2998 21.5752C53.1703 18.4456 48.9258 16.6875 44.5 16.6875C40.0742 16.6875 35.8297 18.4456 32.7002 21.5752C29.5706 24.7047 27.8125 28.9492 27.8125 33.375C27.8125 37.8008 29.5706 42.0453 32.7002 45.1748C35.8297 48.3044 40.0742 50.0625 44.5 50.0625V50.0625Z" fill="#CCCCCC"/>
</g>
<defs>
<clipPath id="clip0">
<rect width="89" height="89" fill="white"/>
</clipPath>
</defs>
</svg>
